<svg width="24" height="24" viewBox="0 0 24 24" fill="none" xmlns="http://www.w3.org/2000/svg">
<path fill-rule="evenodd" clip-rule="evenodd" d="M5.17507 11.3198C5.17507 8.02755 8.17721 5.1752 12.1191 5.1752V3.0752C7.231 3.0752 3.07507 6.6651 3.07507 11.3198C3.07507 13.5157 4.28737 15.4865 5.951 16.8729C7.36135 18.0481 9.17342 18.8735 11.0691 19.1012V20.1132C11.0691 20.4616 11.2419 20.7873 11.5304 20.9826C11.8189 21.178 12.1855 21.2175 12.509 21.0881C13.9391 20.5161 16.0498 19.3548 17.822 17.7421C19.5762 16.1458 21.1631 13.9527 21.1631 11.3198C21.1631 10.7399 20.693 10.2698 20.1131 10.2698C19.5332 10.2698 19.0631 10.7399 19.0631 11.3198C19.0631 13.0836 17.9852 14.7543 16.4086 16.189C15.3776 17.1271 14.2033 17.8985 13.1691 18.4562V18.1147C13.1691 17.5348 12.699 17.0647 12.1191 17.0647C10.3892 17.0647 8.624 16.3668 7.29539 15.2596C5.96128 14.1478 5.17507 12.7212 5.17507 11.3198ZM17.715 3.07527C18.2949 3.07527 18.765 3.54537 18.765 4.12527V5.47358H20.1133C20.6932 5.47358 21.1633 5.94369 21.1633 6.52358C21.1633 7.10348 20.6932 7.57358 20.1133 7.57358H18.765V8.92166C18.765 9.50156 18.2949 9.97166 17.715 9.97166C17.1351 9.97166 16.665 9.50156 16.665 8.92166V7.57358H15.3169C14.737 7.57358 14.2669 7.10348 14.2669 6.52358C14.2669 5.94368 14.737 5.47358 15.3169 5.47358H16.665V4.12527C16.665 3.54537 17.1351 3.07527 17.715 3.07527Z" fill="#BBC1C8"/>
</svg>
