<svg width="18" height="18" viewBox="0 0 18 18" fill="none" xmlns="http://www.w3.org/2000/svg">
<path fill-rule="evenodd" clip-rule="evenodd" d="M5.0125 2.29688L4.99158 2.29688C4.62435 2.29687 4.31783 2.29686 4.06741 2.31732C3.80624 2.33866 3.56104 2.3848 3.32917 2.50294C2.97343 2.6842 2.6842 2.97343 2.50294 3.32917C2.3848 3.56104 2.33866 3.80624 2.31732 4.06741C2.29686 4.31783 2.29687 4.62435 2.29688 4.99158L2.29688 5.0125V5.425L2.29688 5.44592C2.29687 5.81316 2.29686 6.11968 2.31732 6.37009C2.33866 6.63126 2.3848 6.87646 2.50294 7.10833C2.6842 7.46407 2.97343 7.7533 3.32917 7.93456C3.56104 8.0527 3.80624 8.09884 4.06741 8.12018C4.31783 8.14064 4.62435 8.14063 4.99158 8.14063H5.0125H5.425H5.44592C5.81316 8.14063 6.11968 8.14064 6.37009 8.12018C6.63126 8.09884 6.87646 8.0527 7.10833 7.93456C7.46407 7.7533 7.7533 7.46407 7.93456 7.10833C8.0527 6.87646 8.09884 6.63126 8.12018 6.37009C8.14064 6.11968 8.14063 5.81316 8.14063 5.44592V5.425V5.0125V4.99158C8.14063 4.62435 8.14064 4.31783 8.12018 4.06741C8.09884 3.80624 8.0527 3.56104 7.93456 3.32917C7.7533 2.97343 7.46407 2.6842 7.10833 2.50294C6.87646 2.3848 6.63126 2.33866 6.37009 2.31732C6.11968 2.29686 5.81316 2.29687 5.44592 2.29688L5.425 2.29688H5.0125ZM3.79735 3.42179C3.85961 3.39007 3.95399 3.36127 4.15139 3.34515C4.35481 3.32853 4.61896 3.32813 5.0125 3.32813H5.425C5.81854 3.32813 6.08269 3.32853 6.28611 3.34515C6.48351 3.36127 6.57789 3.39007 6.64015 3.42179C6.80185 3.50418 6.93332 3.63565 7.01571 3.79735C7.04743 3.85961 7.07623 3.95399 7.09235 4.15139C7.10897 4.35481 7.10938 4.61896 7.10938 5.0125V5.425C7.10938 5.81854 7.10897 6.08269 7.09235 6.28611C7.07623 6.48351 7.04743 6.57789 7.01571 6.64015C6.93332 6.80185 6.80185 6.93332 6.64015 7.01571C6.57789 7.04743 6.48351 7.07623 6.28611 7.09235C6.08269 7.10897 5.81854 7.10938 5.425 7.10938H5.0125C4.61896 7.10938 4.35481 7.10897 4.15139 7.09235C3.95399 7.07623 3.85961 7.04743 3.79735 7.01571C3.63565 6.93332 3.50418 6.80185 3.42179 6.64015C3.39007 6.57789 3.36127 6.48351 3.34515 6.28611C3.32853 6.08269 3.32813 5.81854 3.32813 5.425V5.0125C3.32813 4.61896 3.32853 4.35481 3.34515 4.15139C3.36127 3.95399 3.39007 3.85961 3.42179 3.79735C3.50418 3.63565 3.63565 3.50418 3.79735 3.42179ZM12.575 2.29688L12.5541 2.29688C12.1868 2.29687 11.8803 2.29686 11.6299 2.31732C11.3687 2.33866 11.1235 2.3848 10.8917 2.50294C10.5359 2.6842 10.2467 2.97343 10.0654 3.32917C9.9473 3.56104 9.90116 3.80624 9.87982 4.06741C9.85936 4.31783 9.85937 4.62435 9.85938 4.99158V5.0125V5.425V5.44592C9.85937 5.81316 9.85936 6.11968 9.87982 6.37009C9.90116 6.63126 9.9473 6.87646 10.0654 7.10833C10.2467 7.46407 10.5359 7.7533 10.8917 7.93456C11.1235 8.0527 11.3687 8.09884 11.6299 8.12018C11.8803 8.14064 12.1868 8.14063 12.5541 8.14063H12.575H12.9875H13.0084C13.3757 8.14063 13.6822 8.14064 13.9326 8.12018C14.1938 8.09884 14.439 8.0527 14.6708 7.93456C15.0266 7.7533 15.3158 7.46407 15.4971 7.10833C15.6152 6.87646 15.6613 6.63126 15.6827 6.37009C15.7031 6.11968 15.7031 5.81316 15.7031 5.44592V5.425V5.0125V4.99158C15.7031 4.62435 15.7031 4.31783 15.6827 4.06741C15.6613 3.80624 15.6152 3.56104 15.4971 3.32917C15.3158 2.97343 15.0266 2.6842 14.6708 2.50294C14.439 2.3848 14.1938 2.33866 13.9326 2.31732C13.6822 2.29686 13.3757 2.29687 13.0084 2.29688L12.9875 2.29688H12.575ZM11.3599 3.42179C11.4221 3.39007 11.5165 3.36127 11.7139 3.34515C11.9173 3.32853 12.1815 3.32813 12.575 3.32813H12.9875C13.381 3.32813 13.6452 3.32853 13.8486 3.34515C14.046 3.36127 14.1404 3.39007 14.2026 3.42179C14.3643 3.50418 14.4958 3.63565 14.5782 3.79735C14.6099 3.85961 14.6387 3.95399 14.6549 4.15139C14.6715 4.35481 14.6719 4.61896 14.6719 5.0125V5.425C14.6719 5.81854 14.6715 6.08269 14.6549 6.28611C14.6387 6.48351 14.6099 6.57789 14.5782 6.64015C14.4958 6.80185 14.3643 6.93332 14.2026 7.01571C14.1404 7.04743 14.046 7.07623 13.8486 7.09235C13.6452 7.10897 13.381 7.10938 12.9875 7.10938H12.575C12.1815 7.10938 11.9173 7.10897 11.7139 7.09235C11.5165 7.07623 11.4221 7.04743 11.3599 7.01571C11.1982 6.93332 11.0667 6.80185 10.9843 6.64015C10.9526 6.57789 10.9238 6.48351 10.9076 6.28611C10.891 6.08269 10.8906 5.81854 10.8906 5.425V5.0125C10.8906 4.61896 10.891 4.35481 10.9076 4.15139C10.9238 3.95399 10.9526 3.85961 10.9843 3.79735C11.0667 3.63565 11.1982 3.50418 11.3599 3.42179ZM4.99158 9.85938H5.0125H5.425H5.44592C5.81316 9.85937 6.11968 9.85936 6.37009 9.87982C6.63126 9.90116 6.87646 9.9473 7.10833 10.0654C7.46407 10.2467 7.7533 10.5359 7.93456 10.8917C8.0527 11.1235 8.09884 11.3687 8.12018 11.6299C8.14064 11.8803 8.14063 12.1868 8.14063 12.5541V12.575V12.9875V13.0084C8.14063 13.3757 8.14064 13.6822 8.12018 13.9326C8.09884 14.1938 8.0527 14.439 7.93456 14.6708C7.7533 15.0266 7.46407 15.3158 7.10833 15.4971C6.87646 15.6152 6.63126 15.6613 6.37009 15.6827C6.11968 15.7031 5.81316 15.7031 5.44592 15.7031H5.425H5.0125H4.99158C4.62435 15.7031 4.31783 15.7031 4.06741 15.6827C3.80624 15.6613 3.56104 15.6152 3.32917 15.4971C2.97343 15.3158 2.6842 15.0266 2.50294 14.6708C2.3848 14.439 2.33866 14.1938 2.31732 13.9326C2.29686 13.6822 2.29687 13.3757 2.29688 13.0084L2.29688 12.9875V12.575L2.29688 12.5541C2.29687 12.1868 2.29686 11.8803 2.31732 11.6299C2.33866 11.3687 2.3848 11.1235 2.50294 10.8917C2.6842 10.5359 2.97343 10.2467 3.32917 10.0654C3.56104 9.9473 3.80624 9.90116 4.06741 9.87982C4.31783 9.85936 4.62435 9.85937 4.99158 9.85938ZM4.15139 10.9076C3.95399 10.9238 3.85961 10.9526 3.79735 10.9843C3.63565 11.0667 3.50418 11.1982 3.42179 11.3599C3.39007 11.4221 3.36127 11.5165 3.34515 11.7139C3.32853 11.9173 3.32813 12.1815 3.32813 12.575V12.9875C3.32813 13.381 3.32853 13.6452 3.34515 13.8486C3.36127 14.046 3.39007 14.1404 3.42179 14.2026C3.50418 14.3643 3.63565 14.4958 3.79735 14.5782C3.85961 14.6099 3.95399 14.6387 4.15139 14.6549C4.35481 14.6715 4.61896 14.6719 5.0125 14.6719H5.425C5.81854 14.6719 6.08269 14.6715 6.28611 14.6549C6.48351 14.6387 6.57789 14.6099 6.64015 14.5782C6.80185 14.4958 6.93332 14.3643 7.01571 14.2026C7.04743 14.1404 7.07623 14.046 7.09235 13.8486C7.10897 13.6452 7.10938 13.381 7.10938 12.9875V12.575C7.10938 12.1815 7.10897 11.9173 7.09235 11.7139C7.07623 11.5165 7.04743 11.4221 7.01571 11.3599C6.93332 11.1982 6.80185 11.0667 6.64015 10.9843C6.57789 10.9526 6.48351 10.9238 6.28611 10.9076C6.08269 10.891 5.81854 10.8906 5.425 10.8906H5.0125C4.61896 10.8906 4.35481 10.891 4.15139 10.9076ZM12.575 9.85938H12.5541C12.1868 9.85937 11.8803 9.85936 11.6299 9.87982C11.3687 9.90116 11.1235 9.9473 10.8917 10.0654C10.5359 10.2467 10.2467 10.5359 10.0654 10.8917C9.9473 11.1235 9.90116 11.3687 9.87982 11.6299C9.85936 11.8803 9.85937 12.1868 9.85938 12.5541V12.575V12.9875V13.0084C9.85937 13.3757 9.85936 13.6822 9.87982 13.9326C9.90116 14.1938 9.9473 14.439 10.0654 14.6708C10.2467 15.0266 10.5359 15.3158 10.8917 15.4971C11.1235 15.6152 11.3687 15.6613 11.6299 15.6827C11.8803 15.7031 12.1868 15.7031 12.5541 15.7031H12.575H12.9875H13.0084C13.3757 15.7031 13.6822 15.7031 13.9326 15.6827C14.1938 15.6613 14.439 15.6152 14.6708 15.4971C15.0266 15.3158 15.3158 15.0266 15.4971 14.6708C15.6152 14.439 15.6613 14.1938 15.6827 13.9326C15.7031 13.6822 15.7031 13.3757 15.7031 13.0084V12.9875V12.575V12.5541C15.7031 12.1868 15.7031 11.8803 15.6827 11.6299C15.6613 11.3687 15.6152 11.1235 15.4971 10.8917C15.3158 10.5359 15.0266 10.2467 14.6708 10.0654C14.439 9.9473 14.1938 9.90116 13.9326 9.87982C13.6822 9.85936 13.3757 9.85937 13.0084 9.85938H12.9875H12.575ZM11.3599 10.9843C11.4221 10.9526 11.5165 10.9238 11.7139 10.9076C11.9173 10.891 12.1815 10.8906 12.575 10.8906H12.9875C13.381 10.8906 13.6452 10.891 13.8486 10.9076C14.046 10.9238 14.1404 10.9526 14.2026 10.9843C14.3643 11.0667 14.4958 11.1982 14.5782 11.3599C14.6099 11.4221 14.6387 11.5165 14.6549 11.7139C14.6715 11.9173 14.6719 12.1815 14.6719 12.575V12.9875C14.6719 13.381 14.6715 13.6452 14.6549 13.8486C14.6387 14.046 14.6099 14.1404 14.5782 14.2026C14.4958 14.3643 14.3643 14.4958 14.2026 14.5782C14.1404 14.6099 14.046 14.6387 13.8486 14.6549C13.6452 14.6715 13.381 14.6719 12.9875 14.6719H12.575C12.1815 14.6719 11.9173 14.6715 11.7139 14.6549C11.5165 14.6387 11.4221 14.6099 11.3599 14.5782C11.1982 14.4958 11.0667 14.3643 10.9843 14.2026C10.9526 14.1404 10.9238 14.046 10.9076 13.8486C10.891 13.6452 10.8906 13.381 10.8906 12.9875V12.575C10.8906 12.1815 10.891 11.9173 10.9076 11.7139C10.9238 11.5165 10.9526 11.4221 10.9843 11.3599C11.0667 11.1982 11.1982 11.0667 11.3599 10.9843Z" fill="black"/>
</svg>
